
<svg width="512" height="512" viewBox="0 0 512 512" fill="none" xmlns="http://www.w3.org/2000/svg">
<g opacity="0.3">
<circle cx="32" cy="32" r="4" fill="#BBD1E2"/>
<circle cx="32" cy="160" r="4" fill="#BBD1E2"/>
<circle cx="32" cy="288" r="4" fill="#BBD1E2"/>
<circle cx="32" cy="416" r="4" fill="#BBD1E2"/>
<circle cx="288" cy="416" r="4" fill="#BBD1E2"/>
<circle cx="288" cy="288" r="4" fill="#BBD1E2"/>
<circle cx="288" cy="160" r="4" fill="#BBD1E2"/>
<circle cx="288" cy="32" r="4" fill="#BBD1E2"/>
<circle cx="160" cy="32" r="4" fill="#BBD1E2"/>
<circle cx="160" cy="160" r="4" fill="#BBD1E2"/>
<circle cx="160" cy="288" r="4" fill="#BBD1E2"/>
<circle cx="160" cy="416" r="4" fill="#BBD1E2"/>
<circle cx="416" cy="416" r="4" fill="#BBD1E2"/>
<circle cx="416" cy="288" r="4" fill="#BBD1E2"/>
<circle cx="416" cy="160" r="4" fill="#BBD1E2"/>
<circle cx="416" cy="32" r="4" fill="#BBD1E2"/>
<circle cx="32" cy="96" r="4" fill="#BBD1E2"/>
<circle cx="32" cy="224" r="4" fill="#BBD1E2"/>
<circle cx="32" cy="352" r="4" fill="#BBD1E2"/>
<circle cx="32" cy="480" r="4" fill="#BBD1E2"/>
<circle cx="288" cy="480" r="4" fill="#BBD1E2"/>
<circle cx="288" cy="352" r="4" fill="#BBD1E2"/>
<circle cx="288" cy="224" r="4" fill="#BBD1E2"/>
<circle cx="288" cy="96" r="4" fill="#BBD1E2"/>
<circle cx="160" cy="96" r="4" fill="#BBD1E2"/>
<circle cx="160" cy="224" r="4" fill="#BBD1E2"/>
<circle cx="160" cy="352" r="4" fill="#BBD1E2"/>
<circle cx="160" cy="480" r="4" fill="#BBD1E2"/>
<circle cx="416" cy="480" r="4" fill="#BBD1E2"/>
<circle cx="416" cy="352" r="4" fill="#BBD1E2"/>
<circle cx="416" cy="224" r="4" fill="#BBD1E2"/>
<circle cx="416" cy="96" r="4" fill="#BBD1E2"/>
<circle cx="96" cy="32" r="4" fill="#BBD1E2"/>
<circle cx="96" cy="160" r="4" fill="#BBD1E2"/>
<circle cx="96" cy="288" r="4" fill="#BBD1E2"/>
<circle cx="96" cy="416" r="4" fill="#BBD1E2"/>
<circle cx="352" cy="416" r="4" fill="#BBD1E2"/>
<circle cx="352" cy="288" r="4" fill="#BBD1E2"/>
<circle cx="352" cy="160" r="4" fill="#BBD1E2"/>
<circle cx="352" cy="32" r="4" fill="#BBD1E2"/>
<circle cx="224" cy="32" r="4" fill="#BBD1E2"/>
<circle cx="224" cy="160" r="4" fill="#BBD1E2"/>
<circle cx="224" cy="288" r="4" fill="#BBD1E2"/>
<circle cx="224" cy="416" r="4" fill="#BBD1E2"/>
<circle cx="480" cy="416" r="4" fill="#BBD1E2"/>
<circle cx="480" cy="288" r="4" fill="#BBD1E2"/>
<circle cx="480" cy="160" r="4" fill="#BBD1E2"/>
<circle cx="480" cy="32" r="4" fill="#BBD1E2"/>
<circle cx="96" cy="96" r="4" fill="#BBD1E2"/>
<circle cx="96" cy="224" r="4" fill="#BBD1E2"/>
<circle cx="96" cy="352" r="4" fill="#BBD1E2"/>
<circle cx="96" cy="480" r="4" fill="#BBD1E2"/>
<circle cx="352" cy="480" r="4" fill="#BBD1E2"/>
<circle cx="352" cy="352" r="4" fill="#BBD1E2"/>
<circle cx="352" cy="224" r="4" fill="#BBD1E2"/>
<circle cx="352" cy="96" r="4" fill="#BBD1E2"/>
<circle cx="224" cy="96" r="4" fill="#BBD1E2"/>
<circle cx="224" cy="224" r="4" fill="#BBD1E2"/>
<circle cx="224" cy="352" r="4" fill="#BBD1E2"/>
<circle cx="224" cy="480" r="4" fill="#BBD1E2"/>
<circle cx="480" cy="480" r="4" fill="#BBD1E2"/>
<circle cx="480" cy="352" r="4" fill="#BBD1E2"/>
<circle cx="480" cy="224" r="4" fill="#BBD1E2"/>
<circle cx="480" cy="96" r="4" fill="#BBD1E2"/>
</g>
</svg>
